name Walk4.mot
datacolumns 19
datarows 30
range 1.43000000 1.57500000
endheader

                time	   L_ground_force_vx	   L_ground_force_vy	   L_ground_force_vz	   L_ground_force_px	   L_ground_force_py	   L_ground_force_pz	   R_ground_force_vx	   R_ground_force_vy	   R_ground_force_vz	   R_ground_force_px	   R_ground_force_py	   R_ground_force_pz	   L_ground_torque_x	   L_ground_torque_y	   L_ground_torque_z	   R_ground_torque_x	   R_ground_torque_y	   R_ground_torque_z	
          1.43000000	          0.48890746	         69.93193220	         -9.64089595	          0.00491098	          0.00000000	          0.00757333	         -0.00000001	          0.00000025	          0.00000001	          0.00000000	          0.00000000	          0.00000000	          0.00000000	          0.16438775	          0.00000000	          0.00000000	         -0.00000000	          0.00000000	
          1.43500000	         -1.80198224	        100.62991471	        -13.58457029	         -0.06629920	          0.00000000	         -0.00970136	         -0.00000003	          0.00000042	          0.00000001	          0.00000000	          0.00000000	          0.00000000	          0.00000000	          0.23247737	          0.00000000	          0.00000000	         -0.00000000	          0.00000000	
          1.44000000	         -5.37686445	        134.87803309	        -17.70689369	         -0.13266204	          0.00000000	         -0.02569269	         -0.00000004	          0.00000064	          0.00000002	          0.00000000	          0.00000000	          0.00000000	          0.00000000	          0.30122689	          0.00000000	          0.00000000	         -0.00000001	          0.00000000	
          1.44500000	        -10.44795403	        170.87248004	        -21.68685797	         -0.19056774	          0.00000000	         -0.03962215	         -0.00000006	          0.00000090	          0.00000003	          0.00000000	          0.00000000	          0.00000000	          0.00000000	          0.36448072	          0.00000000	          0.00000000	         -0.00000001	          0.00000000	
          1.45000000	        -17.04036603	        206.75375299	        -25.14373787	         -0.23822377	          0.00000000	         -0.05117111	         -0.00000008	          0.00000119	          0.00000004	          0.00000000	          0.00000000	          0.00000000	          0.00000000	          0.41515816	          0.00000000	          0.00000000	         -0.00000001	          0.00000000	
          1.45500000	        -24.87926003	        241.34593877	        -27.70115431	         -0.27528532	          0.00000000	         -0.06034910	         -0.00000011	          0.00000149	          0.00000005	          0.00000000	          0.00000000	          0.00000000	          0.00000000	          0.44592123	          0.00000000	          0.00000000	         -0.00000001	          0.00000000	
          1.46000000	        -33.44293962	        274.08465631	        -29.06654623	         -0.30236928	          0.00000000	         -0.06736456	         -0.00000013	          0.00000179	          0.00000006	          0.00000000	          0.00000000	          0.00000000	          0.00000000	          0.44977037	          0.00000000	          0.00000000	         -0.00000001	          0.00000000	
          1.46500000	        -42.11269239	        304.81983477	        -29.07063941	         -0.32066053	          0.00000000	         -0.07253240	         -0.00000015	          0.00000203	          0.00000007	          0.00000000	          0.00000000	          0.00000000	          0.00000000	          0.42082529	          0.00000000	          0.00000000	         -0.00000001	          0.00000000	
          1.47000000	        -50.36030820	        333.74347598	        -27.67975313	         -0.33160935	          0.00000000	         -0.07620447	         -0.00000017	          0.00000215	          0.00000007	          0.00000000	          0.00000000	          0.00000000	          0.00000000	          0.35539982	          0.00000000	          0.00000000	         -0.00000001	          0.00000000	
          1.47500000	        -57.91623223	        361.28708142	        -24.98945984	         -0.33671816	          0.00000000	         -0.07872271	         -0.00000017	          0.00000208	          0.00000008	          0.00000000	          0.00000000	          0.00000000	          0.00000000	          0.25300377	          0.00000000	          0.00000000	         -0.00000001	          0.00000000	
          1.48000000	        -64.81075134	        387.94867916	        -21.19902403	         -0.33740980	          0.00000000	         -0.08039001	         -0.00000016	          0.00000171	          0.00000007	          0.00000000	          0.00000000	         -0.00000000	          0.00000000	          0.11754698	          0.00000000	          0.00000000	          0.00000000	          0.00000000	
          1.48500000	        -71.23775856	        414.10764423	        -16.59560585	         -0.33496072	          0.00000000	         -0.08144969	         -0.00000011	          0.00000092	          0.00000005	         -0.00000000	          0.00000000	         -0.00000000	          0.00000000	         -0.04068220	          0.00000000	          0.00000000	          0.00000001	          0.00000000	
          1.49000000	        -77.33868820	        439.93741728	        -11.54318995	         -0.33047029	          0.00000000	         -0.08208252	         -0.00000003	         -0.00000043	          0.00000002	         -0.00000000	          0.00000000	         -0.00000000	          0.00000000	         -0.20495977	          0.00000000	          0.00000000	          0.00000002	          0.00000000	
          1.49500000	        -83.06726336	        465.45966711	         -6.43397404	         -0.32484393	          0.00000000	         -0.08241797	          0.00000011	         -0.00000247	         -0.00000004	         -0.00000000	          0.00000000	         -0.00000000	          0.00000000	         -0.35586262	          0.00000000	          0.00000000	          0.00000004	          0.00000000	
          1.50000000	        -88.21977179	        490.65839140	         -1.60143840	         -0.31879085	          0.00000000	         -0.08254584	          0.00000031	         -0.00000535	         -0.00000012	         -0.00000000	          0.00000000	         -0.00000000	          0.00000000	         -0.47715331	          0.00000000	          0.00000000	          0.00000007	          0.00000000	
          1.50500000	        -92.57882165	        515.55300071	          2.74691919	         -0.31283310	          0.00000000	         -0.08252929	          0.00000058	         -0.00000918	         -0.00000024	         -0.00000000	          0.00000000	         -0.00000000	          0.00000000	         -0.56101321	          0.00000000	          0.00000000	          0.00000010	          0.00000000	
          1.51000000	        -96.01792935	        540.16484680	          6.53905091	         -0.30732189	          0.00000000	         -0.08241695	          0.00000093	         -0.00001402	         -0.00000039	         -0.00000001	          0.00000000	         -0.00000000	          0.00000000	         -0.60979081	          0.00000000	          0.00000000	          0.00000013	          0.00000000	
          1.51500000	        -98.49533361	        564.45144134	          9.80033830	         -0.30246494	          0.00000000	         -0.08224975	          0.00000136	         -0.00001983	         -0.00000057	         -0.00000001	          0.00000000	         -0.00000000	          0.00000000	         -0.63232809	          0.00000000	          0.00000000	          0.00000017	          0.00000000	
          1.52000000	       -100.00815683	        588.29526172	         12.59818660	         -0.29835951	          0.00000000	         -0.08205953	          0.00000186	         -0.00002646	         -0.00000079	         -0.00000001	          0.00000000	         -0.00000000	          0.00000000	         -0.63803525	          0.00000000	          0.00000000	          0.00000020	          0.00000000	
          1.52500000	       -100.58028628	        611.53597204	         14.99892147	         -0.29501994	          0.00000000	         -0.08186880	          0.00000242	         -0.00003353	         -0.00000103	         -0.00000001	          0.00000000	         -0.00000000	          0.00000000	         -0.63335153	          0.00000000	          0.00000000	          0.00000023	          0.00000000	
          1.53000000	       -100.27198135	        633.99195124	         17.05612996	         -0.29240126	          0.00000000	         -0.08169247	          0.00000299	         -0.00004043	         -0.00000129	         -0.00000001	          0.00000000	         -0.00000000	          0.00000000	         -0.62196960	          0.00000000	          0.00000000	          0.00000025	          0.00000000	
          1.53500000	        -99.16813077	        655.46036691	         18.82521395	         -0.29041987	          0.00000000	         -0.08154041	          0.00000352	         -0.00004619	         -0.00000152	         -0.00000001	          0.00000000	         -0.00000000	          0.00000000	         -0.60664555	          0.00000000	          0.00000000	          0.00000026	          0.00000000	
          1.54000000	        -97.35593315	        675.72074112	         20.37996979	         -0.28897119	          0.00000000	         -0.08141977	          0.00000390	         -0.00004948	         -0.00000170	         -0.00000001	          0.00000000	         -0.00000000	          0.00000000	         -0.59037081	          0.00000000	          0.00000000	          0.00000022	          0.00000000	
          1.54500000	        -94.91799630	        694.54804214	         21.81261408	         -0.28794278	          0.00000000	         -0.08133654	          0.00000401	         -0.00004850	         -0.00000177	         -0.00000001	          0.00000000	         -0.00000000	          0.00000000	         -0.57623754	          0.00000000	          0.00000000	          0.00000015	          0.00000000	
          1.55000000	        -91.93564093	        711.72351277	         23.22125664	         -0.28722233	          0.00000000	         -0.08129738	          0.00000369	         -0.00004100	         -0.00000166	         -0.00000000	          0.00000000	          0.00000000	          0.00000000	         -0.56666310	          0.00000000	          0.00000000	          0.00000001	          0.00000000	
          1.55500000	        -88.49170764	        727.02991567	         24.69800111	         -0.28670356	          0.00000000	         -0.08131104	          0.00000274	         -0.00002425	         -0.00000128	          0.00000001	          0.00000000	          0.00000000	          0.00000000	         -0.56268561	          0.00000000	          0.00000000	         -0.00000020	          0.00000000	
          1.56000000	        -84.66977692	        740.25186792	         26.32115308	         -0.28629167	          0.00000000	         -0.08138846	          0.00000092	          0.00000487	         -0.00000054	          0.00000002	          0.00000000	          0.00000001	          0.00000000	         -0.56360554	          0.00000000	          0.00000000	         -0.00000051	          0.00000000	
          1.56500000	        -80.54811790	        751.19162431	         28.14781535	         -0.28590592	          0.00000000	         -0.08153913	         -0.00000204	          0.00004967	          0.00000069	          0.00000004	          0.00000000	          0.00000002	          0.00000000	         -0.56732417	          0.00000000	          0.00000000	         -0.00000093	          0.00000000	
          1.57000000	        -76.19557295	        759.68676106	         30.20476623	         -0.28548038	          0.00000000	         -0.08176923	         -0.00000639	          0.00011341	          0.00000252	          0.00000007	          0.00000000	          0.00000003	          0.00000000	         -0.57079672	          0.00000000	          0.00000000	         -0.00000147	          0.00000000	
          1.57500000	        -71.67381570	        765.62797643	         32.47988202	         -0.28496500	          0.00000000	         -0.08208078	         -0.00001240	          0.00019881	          0.00000506	          0.00000010	          0.00000000	          0.00000004	          0.00000000	         -0.57185501	          0.00000000	          0.00000000	         -0.00000212	          0.00000000	
